<?xml version="1.0" standalone="no"?>
<!DOCTYPE svg PUBLIC "-//W3C//DTD SVG 20010904//EN"
 "http://www.w3.org/TR/2001/REC-SVG-20010904/DTD/svg10.dtd">
<svg version="1.0" xmlns="http://www.w3.org/2000/svg"
 width="600.000000pt" height="292.000000pt" viewBox="0 0 600.000000 292.000000"
 preserveAspectRatio="xMidYMid meet">

<g transform="translate(0.000000,292.000000) scale(0.100000,-0.100000)"
fill="#000000" stroke="none">
<path d="M0 1460 l0 -1460 3000 0 3000 0 0 1460 0 1460 -3000 0 -3000 0 0
-1460z m2343 1384 c-5 -14 -3 -15 18 -4 17 8 13 3 -11 -18 -19 -17 -38 -31
-42 -32 -5 0 -8 -6 -8 -13 0 -8 -9 -22 -19 -31 -10 -10 -21 -27 -24 -38 -4
-15 5 -9 34 21 22 22 47 41 57 41 12 0 10 -4 -7 -13 -14 -6 -26 -18 -29 -26
-3 -9 0 -11 9 -7 8 4 5 0 -5 -8 -11 -9 -17 -19 -13 -22 3 -4 -4 -15 -16 -26
-20 -18 -21 -19 -2 -14 19 6 19 6 -1 -12 -11 -9 -19 -23 -17 -29 2 -6 -1 -14
-6 -17 -6 -4 -8 -20 -4 -36 3 -17 0 -36 -7 -44 -11 -15 -39 -116 -39 -146 0
-8 14 14 31 50 43 90 171 218 259 260 35 16 71 30 79 29 8 0 -3 -7 -25 -15
-22 -8 -43 -21 -48 -29 -4 -8 -16 -15 -26 -15 -9 0 -33 -16 -52 -36 -32 -35
-33 -36 -9 -30 24 6 24 5 4 -5 -12 -6 -28 -23 -35 -38 -20 -39 -22 -48 -6 -28
12 14 16 15 26 3 9 -11 5 -16 -19 -26 -35 -15 -102 -85 -125 -131 -14 -30 -10
-27 30 18 88 99 245 205 300 202 l20 -1 -20 -5 c-44 -11 -121 -52 -144 -77
-14 -14 -21 -26 -16 -26 4 0 13 7 19 15 10 14 16 14 59 -1 57 -19 57 -25 2
-15 -40 7 -105 -12 -105 -31 0 -10 3 -10 36 2 22 9 25 8 16 -3 -7 -8 -9 -16
-6 -19 3 -4 -13 -9 -35 -13 -62 -10 -181 -103 -181 -140 0 -4 21 12 48 35 61
55 93 68 194 77 106 10 217 -1 265 -26 l38 -21 -35 3 c-19 1 -38 6 -41 11 -4
5 -30 11 -58 14 -45 4 -51 2 -51 -14 0 -14 3 -15 12 -6 17 17 58 15 58 -2 0
-16 37 -28 66 -20 36 9 162 -55 148 -77 -2 -4 5 -13 17 -19 11 -7 18 -14 15
-17 -3 -4 -1 -13 6 -22 6 -9 -9 4 -33 29 -24 25 -42 49 -41 53 1 4 -7 3 -17
-3 -11 -5 -22 -6 -25 -1 -8 12 -113 49 -161 57 -22 3 -43 8 -47 11 -5 2 -8 -2
-8 -11 0 -8 6 -16 12 -18 9 -3 8 -9 -4 -21 -21 -21 -24 -21 -32 0 -4 9 -1 21
6 26 9 6 8 7 -4 3 -11 -3 -18 0 -18 7 0 7 -7 22 -16 33 -15 18 -15 18 -5 -3
14 -29 14 -46 -1 -37 -7 5 -8 3 -3 -6 4 -7 2 -16 -6 -22 -11 -8 -10 -9 3 -4
10 3 20 0 24 -5 8 -13 -45 -9 -63 4 -9 6 -13 5 -13 -4 0 -11 -2 -11 -10 1 -5
8 -10 20 -10 25 0 6 4 4 9 -4 6 -9 11 -10 15 -2 4 6 5 15 2 20 -8 12 -129 -15
-174 -38 -49 -26 -33 -26 44 0 63 21 99 20 91 -4 -2 -6 -10 -13 -18 -13 -8 -1
-23 -2 -34 -3 -11 -1 14 -14 55 -28 41 -14 89 -35 105 -46 46 -32 119 -111
106 -115 -17 -6 -13 -17 17 -50 15 -16 35 -45 45 -63 13 -24 14 -28 3 -15 -16
19 -46 31 -46 18 0 -4 5 -14 10 -22 9 -13 10 -13 11 0 1 18 28 -38 29 -60 0
-8 -15 8 -32 36 -48 72 -89 126 -112 147 -12 10 -16 16 -10 15 7 -2 13 2 14 7
0 6 -9 13 -22 16 -13 3 -22 11 -20 18 1 7 -2 10 -7 7 -5 -3 -11 0 -14 8 -6 16
-79 60 -117 71 -19 5 -15 0 16 -21 22 -16 50 -36 62 -45 22 -16 49 -107 39
-132 -3 -7 -6 -5 -6 6 -1 9 -5 17 -11 17 -5 0 -10 7 -10 16 0 10 -6 14 -15 10
-11 -4 -15 2 -15 24 0 30 -14 41 -23 18 -3 -8 -6 -6 -6 5 -1 9 -5 17 -10 17
-5 0 -13 9 -16 20 -4 11 -11 18 -16 15 -5 -4 -9 2 -9 11 0 10 -3 15 -6 11 -4
-3 -19 0 -35 8 -32 17 -109 20 -109 5 0 -6 26 -63 59 -128 58 -117 217 -456
284 -607 114 -259 160 -365 254 -585 57 -135 111 -252 120 -262 8 -9 33 -18
54 -20 22 -2 39 -7 39 -13 0 -6 -95 -11 -260 -13 -171 -1 -260 1 -260 8 0 5
13 10 29 10 39 0 80 16 87 34 6 15 -32 107 -219 541 -235 545 -281 653 -296
693 -9 23 -19 42 -22 42 -6 0 -111 -218 -161 -335 -40 -93 -42 -98 -56 -103
-31 -10 -1 66 129 329 l141 284 -9 59 c-9 69 -26 85 -69 67 -16 -6 -47 -28
-68 -47 -22 -20 -45 -33 -54 -29 -11 4 -13 -1 -8 -21 4 -15 3 -23 -3 -20 -5 3
-12 -2 -15 -11 -6 -15 -8 -15 -16 -3 -16 26 -11 40 28 75 37 35 65 48 42 20
-7 -8 -9 -15 -5 -15 10 0 68 50 79 67 9 16 -2 14 -64 -9 -14 -5 -26 -8 -28 -6
-2 2 -8 -5 -13 -14 -12 -21 -76 -68 -65 -47 4 7 -18 -13 -48 -46 -31 -33 -56
-63 -56 -66 0 -3 -11 -19 -25 -35 -14 -16 -25 -33 -25 -39 0 -5 -4 -4 -9 4 -7
10 -14 3 -30 -30 -12 -24 -18 -35 -15 -24 4 11 7 29 7 40 0 23 38 78 97 141
23 25 40 47 38 50 -3 2 -26 -14 -51 -37 -59 -51 -62 -37 -4 17 78 76 209 142
286 145 19 1 15 4 -14 9 -22 4 -44 5 -49 2 -5 -3 -7 2 -3 11 8 22 1 21 -36 -5
-27 -19 -30 -20 -24 -4 7 18 6 18 -18 2 -29 -19 -33 -8 -7 23 16 21 19 21 82
8 36 -7 75 -19 88 -26 13 -7 22 -8 22 -2 0 6 -9 15 -20 21 -26 14 -149 38
-175 34 -11 -2 -54 -5 -95 -8 -114 -9 -159 -28 -224 -96 -67 -70 -73 -67 -11
6 31 35 42 55 34 60 -8 4 -9 3 -5 -4 5 -8 1 -10 -10 -5 -12 4 -15 3 -10 -5 5
-8 1 -10 -10 -5 -13 5 -15 3 -9 -7 6 -9 4 -11 -4 -6 -7 5 -20 2 -30 -6 -9 -7
-4 -1 12 14 43 39 200 88 282 88 38 0 64 4 60 9 -8 14 -179 4 -220 -13 -45
-19 -69 -20 -36 -2 17 10 20 15 10 18 -37 13 251 29 329 19 29 -4 54 -5 57 -3
3 3 -9 14 -27 25 -21 13 -41 17 -62 13 -20 -4 -26 -3 -17 3 7 5 11 14 7 20 -4
6 4 13 19 17 14 3 25 11 25 16 0 6 -6 8 -12 5 -7 -3 -31 -13 -53 -22 l-40 -16
25 21 c24 20 24 21 2 10 -63 -31 -92 -14 -36 21 34 21 35 23 18 36 -24 17 -30
17 -53 -6 -10 -10 -24 -15 -30 -12 -7 5 -2 12 14 19 39 18 30 30 -32 48 -32 8
-66 18 -75 20 -26 8 -22 -5 5 -17 17 -7 11 -8 -28 -5 -27 2 -58 0 -68 -6 -10
-5 -21 -7 -24 -4 -3 3 6 11 20 17 15 7 24 16 21 20 -8 14 53 10 117 -6 33 -9
64 -13 70 -9 14 8 141 -77 207 -140 30 -28 68 -70 84 -94 43 -62 47 -43 5 21
-36 54 -119 137 -137 137 -5 0 -10 4 -10 9 0 11 50 9 68 -3 26 -16 22 2 -7 35
-17 18 -31 37 -31 41 0 4 -12 14 -27 23 -27 15 -27 16 -3 9 14 -3 29 -10 35
-15 19 -19 25 -8 10 21 -8 16 -36 45 -61 65 -26 19 -43 35 -37 35 5 0 14 -5
21 -12 18 -18 14 1 -6 26 -9 13 -24 21 -32 18 -12 -4 -13 -2 -3 9 10 10 17 8
38 -11 67 -63 188 -273 215 -373 7 -26 17 -50 22 -53 14 -9 -3 107 -23 154
-21 48 -17 55 6 15 9 -16 13 -19 9 -8 -4 11 -7 28 -8 37 0 9 -4 14 -8 12 -10
-6 -15 9 -22 61 -6 39 -5 40 12 19 9 -12 22 -30 29 -40 9 -15 12 -16 12 -3 1
8 -10 30 -24 49 -14 18 -23 36 -20 39 3 2 12 -4 20 -15 26 -35 16 -2 -21 63
-20 36 -34 66 -32 69 3 2 17 -18 32 -46 15 -27 31 -52 36 -55 9 -5 15 -38 25
-139 7 -65 11 -67 19 -9 19 135 75 275 124 314 30 23 33 24 25 3z m-206 -121
c-4 -3 -10 3 -13 13 -4 10 -16 31 -26 46 -10 14 -18 30 -18 35 0 4 14 -14 31
-40 18 -26 29 -50 26 -54z m-292 57 c3 -5 1 -10 -4 -10 -6 0 -11 5 -11 10 0 6
2 10 4 10 3 0 8 -4 11 -10z m788 -67 c-7 -2 -19 -2 -25 0 -7 3 -2 5 12 5 14 0
19 -2 13 -5z m-528 -23 c3 -6 -1 -7 -9 -4 -18 7 -21 14 -7 14 6 0 13 -4 16
-10z m-190 -21 c25 -12 44 -24 41 -26 -2 -2 -26 7 -53 21 -59 31 -50 34 12 5z
m7 -69 c6 0 8 -3 5 -7 -4 -3 1 -12 11 -20 15 -11 13 -12 -12 -3 -16 6 -35 9
-42 6 -18 -7 -24 4 -11 20 7 7 18 11 25 9 8 -3 19 -5 24 -5z m363 -10 c-10
-11 -21 -18 -23 -15 -3 3 3 12 14 20 27 20 30 18 9 -5z m230 10 c3 -6 -1 -7
-9 -4 -18 7 -21 14 -7 14 6 0 13 -4 16 -10z m42 4 c-3 -3 -12 -4 -19 -1 -8 3
-5 6 6 6 11 1 17 -2 13 -5z m-992 -24 c-27 -12 -43 -12 -25 0 8 5 22 9 30 9
10 0 8 -3 -5 -9z m1168 -7 c-7 -2 -19 -2 -25 0 -7 3 -2 5 12 5 14 0 19 -2 13
-5z m-65 -10 c-10 -2 -26 -2 -35 0 -10 3 -2 5 17 5 19 0 27 -2 18 -5z m119 1
c-3 -3 -12 -4 -19 -1 -8 3 -5 6 6 6 11 1 17 -2 13 -5z m-202 -20 c-16 -8 -33
-20 -37 -27 -4 -6 -10 -8 -13 -5 -10 10 4 28 29 38 36 15 53 11 21 -6z m-926
-8 c-7 -7 -79 -35 -79 -31 0 7 54 34 69 35 8 0 12 -2 10 -4z m96 -17 c8 -24 8
-24 -24 -34 -15 -4 -21 -3 -17 3 9 15 -44 25 -60 11 -8 -6 -14 -8 -14 -4 0 17
48 44 77 45 23 0 33 -5 38 -21z m25 11 c0 -5 -5 -10 -11 -10 -5 0 -7 5 -4 10
3 6 8 10 11 10 2 0 4 -4 4 -10z m205 0 c3 -6 -1 -7 -9 -4 -18 7 -21 14 -7 14
6 0 13 -4 16 -10z m735 -16 c0 -2 -12 -2 -27 2 -27 6 -27 6 -8 -10 19 -16 19
-16 -9 -4 -15 7 -23 14 -17 16 6 2 9 8 6 12 -3 5 8 4 25 -1 16 -6 30 -13 30
-15z m50 11 c17 -9 30 -18 30 -21 0 -4 -59 23 -69 32 -10 9 13 3 39 -11z
m-160 -10 c0 -2 -6 -5 -13 -8 -8 -3 -14 1 -14 8 0 7 6 11 14 8 7 -3 13 -6 13
-8z m-760 -10 c0 -3 -14 -14 -31 -24 -30 -18 -65 -18 -54 0 3 4 12 6 20 3 8
-3 24 1 37 10 24 17 28 19 28 11z m707 -61 c-3 -3 -12 -4 -19 -1 -8 3 -5 6 6
6 11 1 17 -2 13 -5z m-57 -14 c0 -5 -2 -10 -4 -10 -3 0 -8 5 -11 10 -3 6 -1
10 4 10 6 0 11 -4 11 -10z m3350 -255 c0 -183 -3 -235 -13 -235 -7 0 -17 26
-25 66 -37 194 -174 304 -382 304 l-78 0 -56 -61 c-66 -71 -98 -129 -126 -230
-19 -71 -20 -101 -20 -741 0 -569 2 -669 15 -681 7 -8 35 -18 60 -21 103 -16
23 -26 -206 -26 -224 0 -294 9 -197 24 23 4 48 12 55 18 10 8 13 133 13 622 0
377 4 636 11 675 16 102 62 184 154 277 62 62 99 90 155 117 111 53 189 63
337 43 170 -23 224 -22 251 7 11 12 25 34 31 50 6 15 13 27 16 27 3 0 5 -106
5 -235z m-4630 -28 c-1 -123 -5 -229 -10 -237 -10 -17 -12 -14 -29 69 -22 104
-82 195 -163 247 -21 13 -72 36 -115 50 -66 22 -90 25 -177 22 -84 -2 -111 -8
-156 -29 -117 -55 -174 -149 -175 -284 -1 -202 87 -288 432 -421 230 -89 342
-160 408 -259 51 -77 75 -158 75 -253 0 -144 -38 -232 -144 -338 -118 -118
-263 -175 -446 -175 -135 0 -222 17 -374 75 -93 36 -131 35 -151 -4 -8 -16
-15 -39 -15 -50 0 -13 -5 -20 -12 -18 -10 4 -14 67 -16 261 -2 224 0 257 13
257 11 0 15 -11 15 -42 1 -157 104 -317 253 -392 247 -124 532 -64 628 131 20
41 24 63 24 148 0 83 -4 108 -23 150 -45 98 -118 149 -323 224 -241 89 -339
141 -430 232 -83 83 -122 168 -127 279 -8 160 32 267 138 372 159 156 378 201
670 140 146 -31 168 -33 185 -16 8 9 15 24 15 34 0 26 10 50 21 50 6 0 9 -92
9 -223z m570 103 c-17 -22 -37 -40 -43 -40 -8 0 -8 3 1 9 7 4 20 20 28 36 13
24 12 26 -1 15 -8 -7 -15 -19 -15 -26 0 -8 -5 -14 -12 -14 -6 0 -21 -8 -32
-17 -20 -18 -20 -18 -3 10 24 38 10 34 -37 -10 -23 -21 -31 -27 -20 -13 12 14
25 32 29 40 10 16 -1 10 -55 -35 l-25 -20 25 28 c30 35 97 70 116 63 8 -3 12
-2 9 3 -4 8 53 20 64 14 2 -1 -11 -20 -29 -43z m65 40 c-3 -5 -1 -10 4 -10 6
0 11 5 11 10 0 6 6 10 12 10 20 0 -39 -54 -61 -55 -19 -2 -19 -1 2 26 21 26
46 41 32 19z m824 -32 c14 -39 14 -61 1 -53 -5 3 -10 16 -10 28 0 13 -7 32
-15 45 -14 19 -14 21 -1 16 8 -3 19 -19 25 -36z m65 -32 c-5 -14 -9 -15 -16
-4 -7 9 -8 6 -4 -11 6 -31 -10 -14 -19 19 -3 14 -3 21 2 15 11 -13 33 -17 33
-6 0 5 -7 11 -15 15 -8 3 -15 11 -15 18 0 7 8 4 20 -8 13 -13 18 -27 14 -38z
m-119 23 c4 -11 4 -23 1 -26 -3 -4 -6 -1 -6 5 0 7 -7 12 -15 12 -16 0 -20 12
-8 23 12 12 22 7 28 -14z m168 -25 c-3 -9 0 -14 7 -12 7 2 14 -5 15 -14 5 -31
-14 -19 -35 22 -25 49 -25 58 -1 36 11 -10 17 -24 14 -32z m-1303 -7 c0 -2
-10 -12 -22 -23 l-23 -19 19 23 c18 21 26 27 26 19z m35 -16 c3 -5 2 -12 -3
-15 -5 -3 -9 1 -9 9 0 17 3 19 12 6z m1430 -19 c-3 -3 -11 0 -18 7 -9 10 -8
11 6 5 10 -3 15 -9 12 -12z m894 -94 c21 -46 69 -148 106 -228 37 -80 102
-219 145 -310 72 -154 242 -527 312 -685 52 -116 119 -249 135 -268 9 -9 34
-20 55 -23 95 -16 18 -24 -217 -24 -240 0 -315 9 -209 25 26 3 48 13 51 21 8
21 -66 200 -308 747 -22 48 -57 129 -80 180 -22 50 -53 121 -69 157 -15 36
-41 94 -58 130 l-30 65 -60 -125 c-33 -69 -75 -164 -93 -212 -25 -63 -39 -88
-51 -88 -10 0 -18 4 -18 9 0 4 36 87 81 182 45 96 111 239 149 319 86 187 98
210 110 210 5 0 27 -37 49 -82z m-1289 -83 c0 -19 17 -28 23 -13 4 10 8 9 16
-2 14 -20 14 -33 -1 -24 -6 4 -8 3 -5 -4 4 -5 3 -20 -1 -32 -7 -18 -11 -12
-28 40 -19 60 -19 61 -25 28 -6 -32 -6 -32 -8 9 0 23 -4 50 -7 60 -3 10 3 3
15 -15 12 -18 21 -39 21 -47z m-685 16 c-1 -9 -7 -27 -13 -41 -9 -22 -11 -23
-12 -5 -1 16 -4 15 -14 -9 -9 -19 -15 -24 -18 -15 -3 8 -1 21 3 29 5 8 16 33
25 55 13 34 17 37 23 21 4 -11 7 -26 6 -35z m-52 -1 c-9 -18 -15 -51 -15 -72
1 -21 -2 -38 -7 -38 -5 0 -12 -10 -16 -22 -6 -20 -8 -20 -12 -5 -7 26 52 185
64 173 2 -1 -4 -18 -14 -36z m858 13 c13 -16 12 -17 -3 -4 -17 13 -22 21 -14
21 2 0 10 -8 17 -17z m-55 -120 c-3 -8 -6 -22 -7 -31 -1 -10 -4 -7 -9 8 -13
40 -11 50 6 43 8 -3 13 -12 10 -20z m-880 -72 c-10 -9 -16 -11 -16 -4 0 7 5
15 10 18 6 4 8 10 5 15 -3 5 -2 22 2 37 8 27 8 26 11 -11 2 -26 -2 -44 -12
-55z m928 43 c3 -8 2 -12 -4 -9 -6 3 -10 10 -10 16 0 14 7 11 14 -7z m-37 -16
c-3 -8 -6 -5 -6 6 -1 11 2 17 5 13 3 -3 4 -12 1 -19z m2971 -348 c-3 -227 -12
-275 -35 -187 -26 95 -102 138 -260 145 -78 4 -103 8 -103 18 0 10 14 14 48
14 154 1 284 76 313 183 19 72 19 71 30 60 6 -6 8 -95 7 -233z m-3348 -150 c0
-5 -22 -10 -48 -10 -74 0 -161 -19 -217 -47 -74 -38 -119 -91 -152 -181 -24
-67 -28 -91 -28 -187 0 -98 3 -116 26 -165 53 -111 128 -156 246 -147 37 3 81
9 97 13 40 10 31 -13 -19 -47 -112 -77 -285 -96 -397 -46 -78 35 -149 108
-179 183 -19 49 -23 78 -23 174 -1 114 -1 116 37 192 69 138 194 231 353 262
82 17 304 21 304 6z m1585 -5 c0 -6 -42 -13 -95 -16 -164 -10 -251 -68 -301
-202 -21 -53 -24 -80 -24 -187 0 -116 2 -129 28 -182 45 -92 127 -148 215
-148 16 0 53 7 81 17 28 9 55 13 59 9 13 -14 -78 -84 -136 -107 -68 -26 -184
-31 -252 -11 -65 19 -149 80 -186 135 -98 144 -88 386 22 521 75 93 167 148
276 166 128 20 313 24 313 5z m-3432 -1050 c1 -5 -7 -10 -18 -10 -18 0 -20 -7
-21 -75 -2 -103 -22 -105 -26 -3 -2 61 -6 78 -18 79 -29 3 -31 4 -26 13 7 11
106 8 109 -4z m207 -81 c0 -49 -4 -84 -10 -84 -5 0 -10 18 -10 40 l0 40 -45 0
-45 0 0 -40 c0 -25 -5 -40 -12 -40 -10 0 -13 24 -13 85 0 61 3 85 13 85 7 0
12 -14 12 -35 0 -35 0 -35 45 -35 l45 0 0 41 c0 24 4 38 10 34 6 -3 10 -44 10
-91z m160 80 c0 -5 -14 -8 -30 -7 -27 1 -30 -1 -30 -28 0 -26 3 -29 30 -29 17
0 30 -4 30 -10 0 -5 -13 -10 -30 -10 -27 0 -30 -3 -30 -30 0 -28 3 -30 35 -30
19 0 35 -5 35 -11 0 -6 -19 -9 -47 -7 l-48 3 0 80 c0 44 1 82 2 85 3 10 83 3
83 -6z m299 1 c32 -16 49 -45 26 -45 -8 0 -18 6 -22 14 -4 8 -20 17 -34 21
-58 14 -97 -68 -54 -115 21 -24 67 -26 85 -5 7 8 20 15 29 15 30 -1 -38 -50
-69 -50 -42 0 -59 9 -76 42 -26 51 -4 112 46 131 25 9 40 8 69 -8z m697 -5 c7
0 9 -40 3 -58 -6 -15 -20 -23 -49 -28 -38 -6 -40 -9 -40 -40 0 -19 -4 -34 -10
-34 -6 0 -10 35 -10 84 0 80 1 85 23 88 12 2 35 0 52 -4 16 -4 30 -8 31 -8z
m301 7 c-2 -6 -17 -11 -33 -12 -24 0 -30 -5 -32 -27 -3 -25 0 -28 27 -28 41 0
49 -18 9 -22 -28 -2 -34 -8 -36 -30 -3 -26 -1 -28 32 -28 20 0 36 -4 36 -10 0
-5 -20 -10 -45 -10 l-45 0 0 84 c0 92 -1 91 63 93 17 1 27 -3 24 -10z m176 -2
c1 -5 -7 -10 -18 -10 -18 0 -20 -7 -21 -75 -2 -103 -22 -105 -26 -3 -2 61 -6
78 -18 79 -29 3 -31 4 -26 13 7 11 106 8 109 -4z m155 -1 c-3 -9 -8 -11 -40
-13 -12 -1 -18 -9 -18 -26 0 -21 5 -25 30 -25 17 0 30 -4 30 -10 0 -5 -13 -10
-30 -10 -27 0 -30 -3 -30 -30 0 -28 3 -30 35 -30 19 0 35 -4 35 -10 0 -5 -21
-10 -48 -10 l-47 0 0 83 c0 45 4 85 8 88 13 10 77 4 75 -7z m320 -6 c14 -12
16 -38 2 -38 -5 0 -10 4 -10 8 0 5 -11 14 -25 20 -54 25 -106 -28 -84 -85 6
-15 16 -31 22 -35 20 -13 64 -9 77 7 7 8 20 15 29 15 12 -1 9 -7 -12 -25 -31
-27 -81 -33 -108 -12 -57 43 -45 135 21 160 19 7 71 -2 88 -15z m437 8 c19 -8
35 -22 35 -30 0 -20 -19 -21 -26 -2 -14 36 -88 23 -104 -19 -10 -27 2 -74 23
-87 20 -13 64 -9 77 7 7 8 20 15 29 15 12 -1 9 -7 -12 -25 -31 -27 -81 -33
-108 -12 -59 45 -43 143 26 160 11 2 21 5 23 6 1 0 18 -6 37 -13z m485 -82 c0
-105 -11 -108 -71 -17 l-44 67 -3 -67 c-4 -97 -22 -83 -22 18 0 106 13 110 67
23 l38 -63 3 55 c3 65 8 83 22 75 5 -3 10 -44 10 -91z m369 87 c15 -1 7 -15
-10 -17 -5 -1 -13 -2 -19 -3 -6 0 -10 -33 -10 -76 0 -99 -18 -97 -22 3 -2 52
-7 77 -15 78 -38 4 -38 4 -24 13 11 7 32 8 100 2z m277 -12 c17 -14 18 -41 2
-57 -9 -9 -10 -15 -2 -20 19 -13 23 -39 7 -61 -12 -18 -23 -21 -61 -19 l-46 3
1 77 c1 43 4 82 7 87 8 12 74 5 92 -10z m192 -2 c17 -13 15 -47 -5 -69 -15
-17 -15 -21 0 -53 23 -48 -3 -48 -29 0 -10 19 -24 35 -31 35 -8 0 -13 -13 -13
-35 0 -19 -4 -35 -10 -35 -6 0 -10 35 -10 84 0 72 3 85 18 88 23 5 64 -2 80
-15z m352 -45 l45 -67 3 63 c4 93 22 75 22 -23 0 -62 -3 -85 -12 -85 -7 1 -32
31 -55 68 l-42 67 -1 -67 c0 -38 -4 -68 -9 -68 -5 0 -11 4 -13 10 -6 17 3 170
10 170 4 0 27 -31 52 -68z m218 59 c65 -2 96 -98 47 -147 -21 -21 -33 -25 -72
-22 l-46 3 2 80 c3 90 4 95 29 90 9 -2 27 -4 40 -4z m-3729 -27 c47 -60 10
-144 -64 -144 -74 0 -115 94 -65 148 31 33 102 31 129 -4z m148 -41 l30 -68
33 68 c18 37 37 66 43 64 7 -2 11 -23 10 -48 -1 -24 -2 -61 -2 -81 -2 -61 -21
-43 -22 20 l-1 57 -26 -57 c-15 -32 -30 -58 -35 -58 -4 0 -20 26 -35 58 l-27
57 -3 -57 c-5 -90 -22 -68 -22 27 0 107 14 111 57 18z m393 -8 l0 -75 30 0
c17 0 30 -4 30 -10 0 -5 -18 -10 -40 -10 l-40 0 0 85 c0 50 4 85 10 85 6 0 10
-32 10 -75z m1087 53 c16 -15 23 -33 23 -58 0 -80 -90 -120 -145 -65 -32 31
-34 96 -5 125 28 28 96 27 127 -2z m462 -4 c47 -60 10 -144 -64 -144 -74 0
-115 94 -65 148 31 33 102 31 129 -4z m321 -37 c0 -68 10 -87 47 -87 30 0 43
28 43 94 0 31 5 56 10 56 6 0 10 -28 10 -63 0 -77 -18 -107 -62 -107 -53 0
-68 23 -68 102 0 39 4 68 10 68 6 0 10 -28 10 -63z m926 16 c9 -27 23 -63 31
-82 16 -41 16 -41 -1 -41 -7 0 -16 9 -19 20 -8 30 -69 28 -90 -2 -25 -39 -29
-13 -6 48 12 33 26 69 30 82 14 36 36 26 55 -25z"/>
<path d="M1810 2560 c8 -5 20 -10 25 -10 6 0 3 5 -5 10 -8 5 -19 10 -25 10 -5
0 -3 -5 5 -10z"/>
<path d="M2355 2540 c-3 -5 -1 -10 4 -10 6 0 11 5 11 10 0 6 -2 10 -4 10 -3 0
-8 -4 -11 -10z"/>
<path d="M1910 2479 c0 -5 5 -7 10 -4 6 3 10 8 10 11 0 2 -4 4 -10 4 -5 0 -10
-5 -10 -11z"/>
<path d="M2485 2360 c3 -5 8 -10 11 -10 2 0 4 5 4 10 0 6 -5 10 -11 10 -5 0
-7 -4 -4 -10z"/>
<path d="M2562 2356 c1 -10 8 -17 13 -17 15 1 12 24 -3 29 -9 3 -13 -2 -10
-12z"/>
<path d="M2505 2330 c3 -5 8 -10 11 -10 2 0 4 5 4 10 0 6 -5 10 -11 10 -5 0
-7 -4 -4 -10z"/>
<path d="M1725 2320 l-20 -9 20 0 c11 0 27 4 35 9 13 9 13 10 0 9 -8 0 -24 -4
-35 -9z"/>
<path d="M2487 2296 c-6 -16 2 -28 14 -20 12 7 11 34 0 34 -5 0 -11 -6 -14
-14z"/>
<path d="M2745 2300 c27 -12 43 -12 25 0 -8 5 -22 9 -30 9 -10 0 -8 -3 5 -9z"/>
<path d="M2340 2200 c19 -13 30 -13 30 0 0 6 -10 10 -22 10 -19 0 -20 -2 -8
-10z"/>
<path d="M2596 2096 c3 -8 12 -17 20 -20 9 -3 12 -11 8 -17 -4 -8 -3 -9 4 -5
17 10 14 19 -13 39 -19 13 -23 14 -19 3z"/>
<path d="M2647 2006 c-4 -9 -2 -15 5 -13 6 1 13 -4 16 -12 3 -9 0 -11 -9 -6
-8 5 -10 4 -6 0 9 -11 37 -16 37 -7 0 4 -9 18 -19 31 -15 20 -19 21 -24 7z"/>
<path d="M1835 2269 c-4 -6 -5 -12 -2 -15 2 -3 7 2 10 11 7 17 1 20 -8 4z"/>
<path d="M1697 303 c-4 -3 -7 -19 -7 -35 0 -29 18 -36 54 -22 25 10 20 51 -6
58 -29 7 -33 7 -41 -1z"/>
<path d="M4238 303 c-11 -3 -18 -14 -18 -29 0 -22 4 -25 32 -22 21 2 34 9 36
20 4 19 -25 36 -50 31z"/>
<path d="M4220 200 c0 -29 2 -31 33 -28 27 2 32 7 32 28 0 21 -5 26 -32 28
-31 3 -33 1 -33 -28z"/>
<path d="M4410 270 c0 -26 3 -30 29 -30 30 0 45 19 35 45 -4 9 -19 15 -35 15
-26 0 -29 -4 -29 -30z"/>
<path d="M5028 302 c-15 -3 -18 -15 -18 -68 0 -62 1 -64 26 -64 39 0 62 17 69
50 11 51 -28 93 -77 82z"/>
<path d="M1226 289 c-47 -37 -24 -119 34 -119 32 0 70 39 70 72 0 22 -43 68
-63 68 -8 0 -26 -9 -41 -21z"/>
<path d="M2856 289 c-50 -39 -26 -119 37 -119 29 0 67 41 67 72 0 22 -43 68
-63 68 -8 0 -26 -9 -41 -21z"/>
<path d="M3317 289 c-50 -39 -27 -119 34 -119 56 0 88 66 52 107 -28 32 -56
36 -86 12z"/>
<path d="M4622 261 c-17 -47 -15 -51 13 -51 28 0 30 11 11 55 l-12 30 -12 -34z"/>
</g>
</svg>
